<svg width="18" height="24" viewBox="0 0 18 24" fill="none" xmlns="http://www.w3.org/2000/svg">
<path fill-rule="evenodd" clip-rule="evenodd" d="M7.44187 1.29829C7.44187 4.46351 4.52165 7.3483 1.31481 7.3483L1.29828 7.3483C0.581261 7.3483 -6.74885e-07 7.92956 -6.43543e-07 8.64659C-6.12201e-07 9.36361 0.581261 9.94487 1.29828 9.94487L1.31481 9.94487C3.6473 9.94487 5.83515 8.9348 7.44187 7.3496L7.44187 22.0543C7.44187 22.7805 8.03053 23.3691 8.75668 23.3691C9.48283 23.3691 10.0715 22.7805 10.0715 22.0543L10.0715 7.3496C11.6782 8.9348 13.8661 9.94487 16.1985 9.94487L16.2151 9.94487C16.9321 9.94487 17.5133 9.36361 17.5133 8.64658C17.5133 7.92956 16.9321 7.3483 16.2151 7.3483L16.1985 7.3483C12.9917 7.3483 10.0715 4.46351 10.0715 1.29829C10.0715 0.581267 9.49023 4.79278e-06 8.77321 4.82412e-06L8.74015 4.82556e-06C8.02313 4.8569e-06 7.44187 0.581267 7.44187 1.29829Z" fill="#10171D"/>
</svg>
