<svg width="14" height="12" viewBox="0 0 14 12" fill="none" xmlns="http://www.w3.org/2000/svg">
<path fill-rule="evenodd" clip-rule="evenodd" d="M12.0474 1.15899C10.2652 2.55067 7.35593 2.17354 5.94486 0.366526L5.93715 0.356648C5.62189 -0.0470761 5.03904 -0.11879 4.63531 0.196471C4.23159 0.511731 4.15988 1.09458 4.47514 1.49831L4.48285 1.50818C5.50919 2.82251 7.04061 3.61124 8.64015 3.81963L0.36115 10.2845C-0.048029 10.6041 -0.120712 11.1948 0.198809 11.604C0.51833 12.0132 1.10906 12.0858 1.51824 11.7663L9.79724 5.3014C9.61166 6.90374 10.0056 8.58068 11.032 9.89501L11.0397 9.90489C11.3549 10.3086 11.9378 10.3803 12.3415 10.0651C12.7452 9.7498 12.817 9.16695 12.5017 8.76323L12.494 8.75335C11.0829 6.94633 11.4223 4.03244 13.2045 2.64076C13.6082 2.3255 13.6799 1.74265 13.3646 1.33892L13.3492 1.31917C13.0339 0.915444 12.4511 0.84373 12.0474 1.15899Z" fill="#10171D"/>
</svg>
